<?xml version="1.0" standalone="no"?>
<!DOCTYPE svg PUBLIC "-//W3C//DTD SVG 20010904//EN"
 "http://www.w3.org/TR/2001/REC-SVG-20010904/DTD/svg10.dtd">
<svg version="1.0" xmlns="http://www.w3.org/2000/svg"
 width="800.000000pt" height="800.000000pt" viewBox="0 0 800.000000 800.000000"
 preserveAspectRatio="xMidYMid meet">

<g transform="translate(0.000000,800.000000) scale(0.100000,-0.100000)"
fill="#000000" stroke="none">
<path d="M3924 7438 c-166 -13 -318 -91 -446 -227 -136 -144 -182 -265 -181
-476 0 -113 4 -140 27 -210 l26 -80 -58 -55 c-98 -94 -563 -519 -620 -568
l-55 -47 -96 -1 c-157 -1 -261 -57 -326 -175 -40 -74 -41 -167 -2 -253 15 -32
27 -60 27 -62 0 -2 -200 -137 -445 -299 -343 -228 -445 -300 -445 -316 0 -11
7 -33 15 -50 l16 -29 47 27 c178 103 651 407 664 427 4 6 10 7 15 3 10 -11 -7
-39 -232 -392 -281 -442 -309 -485 -315 -485 -3 0 -13 21 -22 48 -41 112 -165
262 -284 342 -112 74 -207 101 -374 107 -102 4 -152 1 -202 -11 -231 -54 -450
-269 -514 -506 -27 -99 -25 -264 5 -360 40 -130 95 -224 186 -314 92 -91 161
-136 265 -172 208 -73 432 -41 620 86 120 81 251 234 291 339 9 25 21 47 26
48 10 4 1 16 357 -482 141 -198 284 -397 317 -442 l61 -82 -31 -38 c-103 -129
-98 -298 13 -421 64 -70 112 -87 247 -87 108 0 119 -2 151 -25 32 -22 371
-319 614 -538 l93 -82 -20 -58 c-11 -31 -27 -97 -35 -147 -60 -339 141 -678
468 -792 63 -22 90 -26 203 -26 148 0 219 14 330 67 182 86 314 238 377 432
19 57 22 91 22 199 -1 118 -3 139 -32 225 -30 90 -31 96 -14 111 73 69 468
422 552 495 173 149 160 142 266 136 132 -6 190 12 264 86 103 104 124 218 65
350 -15 33 -37 70 -50 82 l-23 22 88 116 c48 65 205 286 350 492 144 206 270
383 280 393 17 18 19 16 63 -67 91 -170 209 -290 362 -365 184 -91 387 -92
580 -3 255 118 414 363 415 640 0 202 -84 391 -240 535 -248 229 -620 239
-906 23 -92 -69 -221 -231 -238 -301 -12 -49 -13 -48 -201 229 -163 240 -395
599 -391 603 4 4 110 -63 500 -316 120 -77 224 -141 231 -141 14 0 65 55 65
70 0 5 -201 143 -447 306 -247 163 -452 300 -456 304 -5 5 1 37 13 73 17 52
21 82 19 145 -4 73 -7 84 -42 135 -74 107 -200 164 -305 137 -41 -10 -48 -9
-81 13 -20 13 -94 78 -166 143 -71 66 -221 202 -333 303 -111 100 -209 193
-217 205 -13 19 -12 29 7 86 18 54 22 90 22 210 1 97 -4 162 -13 195 -64 225
-254 421 -473 490 -87 27 -170 34 -294 23z m-507 -1105 c2 -6 -89 -96 -204
-200 -114 -103 -273 -248 -353 -320 -139 -128 -180 -154 -180 -115 0 15 555
535 665 622 39 31 65 36 72 13z m1223 0 c37 -25 301 -258 508 -448 142 -130
182 -172 180 -188 -5 -33 -34 -32 -65 1 -39 42 -203 194 -451 420 -135 123
-212 201 -212 213 0 23 8 24 40 2z m-1095 -122 c65 -59 193 -123 298 -150 43
-11 82 -22 85 -26 12 -11 20 -371 21 -862 l1 -483 -27 -6 c-167 -37 -259 -77
-387 -168 l-78 -57 -107 113 c-58 62 -212 223 -342 358 -255 266 -319 334
-319 343 0 3 15 29 33 58 31 51 32 55 31 163 l-1 111 254 230 c266 241 475
425 481 425 2 0 28 -22 57 -49z m1250 -190 c137 -125 294 -269 349 -321 l99
-96 1 -115 c1 -112 2 -117 34 -168 19 -31 29 -58 25 -65 -11 -18 -593 -634
-686 -725 l-76 -74 -61 56 c-92 86 -224 143 -393 172 l-37 6 2 676 3 677 75
17 c131 29 249 84 345 158 28 21 55 36 60 33 6 -3 122 -107 260 -231z m-2330
-856 c28 0 69 4 93 9 l43 8 111 -109 c108 -106 585 -603 646 -674 l32 -37 -30
-66 c-37 -80 -70 -213 -70 -278 l0 -48 -837 0 c-461 0 -848 3 -860 6 -31 8
-29 23 11 75 18 24 107 161 197 304 91 143 248 387 349 542 l185 283 40 -8
c22 -4 63 -7 90 -7z m3100 5 l100 0 342 -513 c364 -546 437 -662 428 -677 -4
-6 -323 -10 -854 -10 l-849 0 -7 48 c-11 79 -35 162 -72 255 l-35 88 53 57
c29 31 204 216 388 411 l335 353 35 -6 c20 -3 81 -6 136 -6z m-2774 -1327
l516 -6 22 -67 c11 -36 21 -72 21 -78 0 -17 -141 -178 -423 -485 -136 -148
-268 -293 -294 -323 l-47 -54 -116 0 -116 0 -60 88 c-33 48 -125 179 -205 292
-172 243 -416 601 -425 624 -6 15 22 16 302 16 170 0 541 -3 825 -7z m3512 1
l46 -7 -163 -241 c-195 -289 -491 -714 -516 -739 -14 -16 -38 -20 -136 -24
l-119 -4 -49 58 c-27 32 -198 222 -381 423 l-331 366 29 87 29 87 772 0 c425
0 794 -3 819 -6z m-2723 -416 c61 -49 173 -104 269 -131 l79 -22 6 -50 c20
-179 14 -1191 -9 -1246 -3 -9 -23 -19 -43 -23 -83 -14 -246 -94 -368 -181 -20
-15 -28 -10 -165 108 -79 68 -243 213 -364 322 l-220 197 -1 97 c-1 100 -17
153 -74 239 l-22 32 99 103 c54 56 224 236 377 400 l279 298 56 -53 c31 -30
76 -70 101 -90z m1182 -40 c198 -208 362 -387 482 -525 l88 -103 -27 -31 c-56
-67 -69 -107 -72 -214 l-2 -100 -103 -100 c-57 -55 -207 -192 -333 -304 -127
-112 -242 -215 -257 -229 l-27 -25 -63 48 c-111 83 -276 155 -358 155 l-40 0
1 368 c1 527 12 929 25 942 5 5 36 17 68 25 144 38 296 126 395 229 19 20 40
36 46 36 7 0 86 -78 177 -172z m-2022 -1085 c36 -24 122 -99 423 -367 250
-222 286 -261 252 -273 -11 -3 -179 137 -423 355 -226 202 -292 267 -292 286
0 20 9 20 40 -1z m2544 -24 c-38 -43 -685 -629 -695 -629 -49 0 96 152 439
460 192 172 250 216 266 200 6 -6 3 -17 -10 -31z"/>
</g>
</svg>
