<?xml version="1.0" standalone="no"?>
<!DOCTYPE svg PUBLIC "-//W3C//DTD SVG 20010904//EN"
 "http://www.w3.org/TR/2001/REC-SVG-20010904/DTD/svg10.dtd">
<svg version="1.0" xmlns="http://www.w3.org/2000/svg"
 width="800.000000pt" height="800.000000pt" viewBox="0 0 800.000000 800.000000"
 preserveAspectRatio="xMidYMid meet">

<g transform="translate(0.000000,800.000000) scale(0.100000,-0.100000)"
fill="#000000" stroke="none">
<path d="M2710 7895 c-18 -21 -8 -48 20 -56 14 -4 69 -7 122 -8 l98 -1 24 -48
c13 -26 47 -86 75 -132 28 -47 51 -91 51 -98 0 -11 -50 -13 -257 -10 -248 3
-259 4 -293 25 -93 60 -194 -19 -129 -101 33 -42 115 -29 152 24 14 20 23 20
278 18 l264 -3 113 -180 c138 -220 236 -415 296 -597 46 -138 53 -168 38 -168
-16 0 -574 525 -670 631 -23 25 -42 53 -42 61 0 27 -37 51 -66 44 -22 -6 -25
-11 -20 -34 4 -15 20 -38 38 -52 162 -131 611 -566 733 -712 l73 -86 6 -84 c3
-46 13 -198 21 -338 9 -140 29 -429 45 -642 35 -450 32 -398 21 -398 -5 0 -42
57 -82 128 -39 70 -167 282 -284 472 -116 190 -242 397 -280 460 -138 232
-172 274 -352 436 -226 203 -610 570 -624 596 -8 16 -7 33 6 74 27 85 15 127
-55 197 -50 50 -62 57 -96 57 -21 0 -62 -11 -90 -24 -109 -51 -136 -183 -57
-277 40 -47 73 -59 161 -59 l80 0 368 -354 c203 -194 392 -382 421 -418 28
-35 78 -109 111 -163 99 -168 225 -396 220 -400 -2 -2 -51 16 -108 41 -58 25
-179 75 -270 111 -259 102 -302 126 -601 334 l-155 108 -485 3 c-387 2 -489 6
-511 17 -31 16 -73 8 -82 -15 -3 -9 0 -28 7 -42 12 -27 13 -27 107 -22 52 3
282 5 511 5 l415 0 45 -29 c24 -16 130 -88 234 -161 233 -162 254 -174 485
-270 102 -42 248 -107 325 -145 128 -61 145 -73 182 -121 51 -67 239 -392 348
-604 107 -207 236 -545 207 -545 -22 0 -139 47 -472 188 -195 83 -498 209
-673 281 -442 182 -451 187 -630 343 -45 39 -102 84 -127 100 -105 67 -351
110 -795 138 -211 14 -188 2 -318 170 -130 168 -167 204 -167 165 0 -12 -16
-15 -82 -15 -46 0 -114 -3 -153 -7 -103 -10 -44 -20 130 -22 l140 -1 98 -138
97 -137 -126 -9 c-151 -10 -204 -3 -244 31 -39 33 -92 34 -126 2 -27 -26 -31
-57 -9 -98 27 -53 76 -55 135 -6 l42 35 156 0 c87 0 163 -4 170 -8 16 -11 -5
-37 -178 -232 l-135 -151 -149 3 c-135 3 -150 5 -160 22 -34 61 -77 79 -129
55 -33 -15 -57 -59 -47 -85 10 -26 57 -64 79 -64 9 0 31 9 49 20 45 28 101 34
224 25 l103 -7 56 -131 56 -132 -31 -6 c-46 -8 -74 -26 -91 -59 -20 -39 -19
-62 6 -94 29 -36 89 -36 137 1 l35 26 76 -38 c113 -56 197 -119 210 -157 6
-18 24 -121 41 -228 16 -107 37 -235 45 -284 8 -49 12 -93 9 -98 -7 -11 -52
21 -143 101 -175 156 -221 192 -221 172 0 -5 79 -82 175 -171 180 -166 210
-204 240 -300 10 -30 44 -111 76 -179 33 -68 59 -130 59 -137 0 -24 -26 -15
-71 22 -63 53 -98 67 -159 67 -66 0 -110 -18 -168 -67 l-44 -36 -114 0 c-100
0 -115 2 -120 18 -31 96 -93 165 -165 181 -118 26 -239 -68 -239 -186 0 -86
89 -204 164 -219 20 -3 51 -3 69 0 49 9 125 61 148 101 l21 35 114 0 114 0 0
-30 c0 -85 118 -190 212 -190 71 1 153 59 205 148 14 23 32 42 42 42 15 0 234
-52 344 -81 38 -10 39 -11 20 -31 -22 -25 -249 -215 -426 -357 l-129 -103
-171 4 c-162 4 -178 6 -267 37 -92 31 -328 147 -361 177 -10 9 -22 34 -28 58
-14 57 -42 81 -96 81 -88 0 -129 -89 -68 -147 39 -37 76 -44 122 -24 l37 17
204 -104 c113 -57 215 -107 228 -110 32 -8 27 -29 -20 -85 l-42 -49 -44 19
c-90 40 -208 4 -245 -75 -36 -76 -13 -171 53 -215 30 -20 45 -23 101 -20 54 3
73 9 104 32 46 35 74 96 75 159 0 63 9 78 68 116 l49 31 621 0 c342 0 622 -4
622 -8 0 -9 -209 -112 -405 -200 -100 -45 -492 -180 -574 -197 l-33 -7 6 -59
7 -59 -80 0 c-44 0 -112 5 -150 12 -56 10 -72 9 -85 -1 -39 -33 0 -119 47
-106 22 7 32 17 53 51 9 15 26 18 110 18 l99 1 3 -113 c4 -146 22 -139 22 9
l0 109 116 0 115 0 21 -47 c31 -71 55 -101 98 -123 111 -57 250 29 250 154 0
45 -40 116 -80 144 -73 49 -197 17 -253 -66 l-28 -42 -120 0 -119 0 1 33 c1
64 1 64 254 148 132 43 249 78 259 76 12 -1 24 -15 30 -34 9 -25 14 -30 27
-23 9 5 22 23 29 40 10 23 28 37 84 62 39 18 159 76 266 129 l195 96 323 8
323 7 323 -329 c177 -180 363 -373 414 -427 l92 -99 0 -311 c-1 -171 -5 -369
-9 -441 -8 -116 -13 -139 -45 -214 -57 -134 -113 -219 -211 -316 -98 -98 -186
-151 -299 -180 -123 -31 -471 -60 -1101 -91 -187 -9 -344 -20 -348 -24 -23
-20 3861 -23 4493 -3 l215 7 -240 12 c-805 41 -1057 60 -1182 89 -84 20 -171
56 -235 98 -60 40 -191 170 -239 236 -43 60 -95 173 -114 246 -20 79 -35 341
-35 642 l0 242 52 63 c71 85 222 243 522 545 l251 253 270 0 270 0 315 -126
c173 -69 320 -131 327 -137 6 -7 15 -27 20 -46 12 -48 30 -50 49 -6 8 21 20
35 27 32 7 -2 85 -37 175 -77 l162 -73 0 -54 0 -53 -138 0 c-151 0 -155 1
-191 62 -12 20 -37 46 -55 57 -60 37 -166 22 -224 -32 -101 -94 -45 -277 93
-303 85 -16 193 60 216 151 11 45 13 47 42 41 16 -3 83 -6 148 -6 l119 0 0
-72 c0 -40 3 -91 7 -113 10 -63 21 -15 22 98 l1 97 103 0 c56 0 125 -3 154 -6
46 -6 53 -10 62 -35 12 -34 31 -44 66 -35 19 5 25 13 25 35 0 58 -11 61 -231
61 l-199 0 0 63 0 63 -142 64 c-165 73 -244 115 -251 133 -3 7 -25 19 -48 26
-58 17 -353 137 -398 162 -36 19 -34 19 651 17 l686 -3 49 -41 c46 -39 48 -44
53 -101 4 -44 13 -71 34 -101 76 -110 202 -119 290 -21 30 33 36 46 36 84 0
77 -40 149 -102 181 -39 20 -109 17 -169 -7 l-53 -20 -44 44 c-25 25 -43 51
-40 59 6 15 465 248 490 248 9 0 20 -4 23 -10 3 -5 20 -14 38 -18 38 -11 75 5
106 44 29 36 26 68 -8 106 -24 27 -36 33 -71 33 -35 0 -47 -6 -71 -33 -16 -18
-29 -43 -29 -57 0 -14 -9 -34 -20 -45 -37 -37 -316 -166 -475 -220 l-82 -28
-169 145 c-93 79 -222 188 -286 241 -65 53 -118 99 -118 103 0 9 26 15 160 34
58 8 230 36 383 62 l278 46 47 -51 c54 -58 83 -72 151 -72 84 0 151 42 191
120 35 69 21 152 -38 220 -43 51 -80 70 -134 70 -88 -1 -174 -64 -205 -150
-10 -27 -24 -52 -31 -55 -7 -3 -170 -28 -360 -55 -191 -28 -398 -59 -461 -71
-62 -11 -115 -18 -117 -17 -1 2 38 109 88 238 50 129 96 257 104 284 l13 49
-37 35 c-54 50 -280 227 -489 382 -100 74 -182 138 -183 141 0 13 31 19 423
84 703 116 753 121 784 85 26 -30 48 -25 87 22 l36 41 87 -40 c289 -133 313
-136 63 -7 -80 41 -153 81 -163 88 -16 13 -13 24 53 182 39 93 81 193 93 221
l22 53 126 0 c103 0 135 -4 169 -19 103 -46 186 54 104 127 -14 12 -36 22 -49
22 -27 0 -91 -51 -100 -81 -6 -18 -17 -19 -148 -19 l-142 0 -158 182 c-129
150 -154 184 -140 190 10 3 82 7 160 7 83 1 144 5 148 11 4 7 -48 10 -149 10
-86 0 -156 3 -155 8 0 4 40 68 88 142 l88 135 144 6 c79 4 151 8 159 9 32 6
-100 18 -202 19 l-106 1 -49 -62 c-27 -35 -75 -100 -106 -145 -43 -61 -64 -83
-85 -87 -54 -10 -121 -16 -377 -36 -143 -11 -277 -23 -298 -27 l-39 -6 4 225
3 225 47 44 c66 62 69 80 19 131 -36 35 -45 40 -73 34 -67 -13 -107 -60 -94
-111 4 -14 23 -44 43 -66 l36 -40 -6 -207 c-3 -114 -9 -214 -12 -223 -4 -12
-39 -20 -143 -33 -237 -31 -306 -62 -572 -261 l-105 -78 -5 181 c-3 99 -8 183
-11 186 -8 8 -19 -161 -19 -294 l-1 -105 -57 -41 c-31 -22 -105 -76 -165 -119
-59 -43 -110 -75 -113 -72 -3 2 -16 66 -29 141 -13 75 -31 148 -40 162 -10 16
-68 50 -165 97 -83 39 -150 77 -150 83 0 7 43 79 96 161 133 205 145 230 154
330 6 68 12 89 31 109 13 14 191 108 395 208 l370 183 387 7 387 7 9 -24 c12
-31 58 -85 84 -99 97 -52 216 -8 267 97 l22 45 80 0 c75 0 81 -2 110 -30 16
-17 39 -35 50 -41 51 -27 148 32 148 92 0 40 -46 88 -90 95 -29 5 -45 -1 -96
-35 -58 -39 -65 -41 -135 -41 l-74 1 -30 51 c-51 88 -115 117 -206 94 -60 -16
-83 -35 -120 -102 l-29 -51 -167 -6 c-91 -4 -270 -7 -398 -7 l-232 0 -264
-126 c-597 -284 -549 -255 -549 -334 0 -100 -17 -143 -127 -318 -142 -227
-149 -235 -182 -227 -65 17 -98 17 -104 1 -7 -17 24 -52 55 -62 31 -9 42 9
-176 -301 -121 -175 -153 -210 -141 -160 3 12 29 169 59 348 l53 327 115 204
c272 483 644 1047 761 1155 55 51 140 91 446 213 l245 97 50 -23 c62 -29 86
-30 136 -4 50 26 90 83 90 130 0 48 -48 122 -89 140 -39 16 -106 8 -140 -18
-36 -26 -71 -80 -71 -109 0 -42 -41 -67 -240 -147 -107 -43 -254 -107 -326
-142 -113 -55 -140 -73 -188 -125 -138 -148 -683 -966 -758 -1137 -11 -24 -21
-42 -23 -40 -1 2 0 183 4 403 l7 400 38 85 c53 116 116 227 194 340 127 186
346 461 478 600 116 124 130 160 59 160 -31 0 -35 -3 -35 -25 0 -40 -23 -75
-128 -203 -162 -195 -254 -311 -351 -442 -50 -69 -103 -138 -116 -155 l-24
-30 0 175 c0 134 3 181 14 200 38 66 -4 149 -68 136 -44 -9 -67 -33 -67 -73 0
-37 26 -69 65 -79 l25 -6 0 -202 1 -201 -58 -112 c-41 -81 -60 -109 -69 -102
-21 17 -134 195 -134 210 0 8 4 19 10 25 6 6 11 161 12 404 l3 395 38 18 c35
16 38 21 35 54 -2 30 -8 38 -31 46 -23 7 -33 6 -45 -7 -15 -15 -18 -67 -25
-453 -4 -240 -9 -438 -11 -440 -2 -2 -85 -6 -185 -10 l-183 -6 -189 189 -189
189 -1 170 c-1 223 -13 262 -23 75 -4 -79 -10 -148 -13 -153 -3 -5 -16 2 -30
15 -24 22 -260 372 -388 576 l-58 92 -51 0 c-66 0 -118 15 -141 40 -21 24 -38
25 -55 5z m1775 -735 c3 -5 -1 -10 -10 -10 -9 0 -13 5 -10 10 3 6 8 10 10 10
2 0 7 -4 10 -10z m-814 -366 l118 -117 -25 -48 c-42 -84 -83 -143 -88 -128 -3
8 -15 48 -27 89 -12 41 -42 126 -66 189 -44 116 -48 131 -36 131 3 0 59 -52
124 -116z m586 -249 l82 -124 -9 -223 c-32 -756 -113 -1383 -214 -1651 -32
-85 -125 -273 -141 -287 -16 -13 -29 25 -74 205 -58 232 -83 414 -121 865 -25
305 -70 969 -70 1034 0 41 10 65 71 171 l71 124 42 4 c22 2 95 4 161 5 l120 1
82 -124z m2830 -1243 c21 -17 110 -103 197 -190 l159 -160 -77 -180 c-92 -214
-113 -248 -164 -262 -20 -6 -149 -26 -287 -46 -137 -19 -403 -60 -590 -90
-473 -77 -443 -76 -536 -20 -41 25 -180 115 -308 199 l-233 154 133 104 c254
198 494 370 553 394 74 31 284 63 651 100 413 41 447 41 502 -3z m-5839 8
c258 -27 445 -54 507 -75 66 -23 131 -67 240 -165 177 -159 205 -175 615 -337
91 -36 169 -69 173 -73 5 -4 -15 -16 -45 -25 -146 -49 -570 -214 -688 -269
-71 -33 -110 -33 -328 4 -280 47 -424 62 -567 58 l-131 -3 -159 89 c-88 49
-166 94 -174 100 -20 15 -141 268 -144 298 -2 20 36 65 183 220 l185 196 68 1
c37 1 156 -8 265 -19z m3590 -236 c194 -84 180 -64 203 -286 l19 -186 -55
-117 -55 -117 -1 -196 c0 -108 -4 -232 -8 -274 -7 -69 -13 -83 -56 -143 -114
-160 -754 -885 -781 -885 -18 0 -24 131 -31 691 l-6 526 76 156 c42 86 106
208 143 269 99 165 403 618 414 618 5 0 67 -25 138 -56z m-4688 -84 c0 -5 -4
-10 -10 -10 -5 0 -10 5 -10 10 0 6 5 10 10 10 6 0 10 -4 10 -10z m5093 -371
c51 -25 527 -341 527 -350 0 -4 -12 -10 -27 -14 -15 -3 -133 -44 -261 -91
-128 -46 -240 -84 -248 -84 -23 0 -17 18 50 140 79 145 83 156 60 181 -28 31
-47 23 -72 -34 -61 -138 -291 -529 -268 -455 3 9 10 119 16 245 l11 228 56
105 c90 170 84 165 156 129z m-2230 -63 c149 -62 289 -126 528 -243 l236 -115
7 -52 c8 -68 8 -802 -1 -1050 -5 -149 -9 -196 -19 -194 -6 2 -92 78 -190 169
-588 547 -905 805 -1367 1113 -81 54 -147 99 -147 101 0 6 113 56 255 113 239
95 527 191 573 191 27 1 73 -12 125 -33z m-1619 -211 c196 -27 437 -69 477
-83 22 -8 18 -13 -65 -78 -140 -110 -467 -344 -481 -344 -7 0 -61 52 -120 115
-123 132 -124 134 -125 308 l0 107 65 0 c35 0 148 -11 249 -25z m771 -243
c311 -211 539 -394 818 -656 249 -235 468 -469 672 -718 l113 -137 7 -225 c4
-123 4 -248 0 -277 -8 -60 -36 -99 -70 -99 -30 0 -146 89 -506 385 -420 347
-566 463 -608 484 -20 10 -199 65 -398 121 l-363 103 -139 211 c-76 116 -180
269 -230 341 -50 71 -91 135 -91 141 0 10 195 152 500 362 96 67 118 78 135
69 11 -5 83 -52 160 -105z m3915 -25 c200 -143 455 -336 515 -390 l47 -42 -26
-69 c-68 -179 -190 -456 -209 -474 -18 -16 -96 -34 -387 -87 -702 -128 -700
-127 -865 -277 -173 -156 -746 -632 -857 -711 -36 -26 -74 -47 -83 -47 -10 0
-38 12 -62 26 l-44 26 3 261 c4 309 -9 272 163 492 253 324 674 844 724 894 9
9 82 45 161 80 181 79 234 111 385 231 164 131 227 177 283 205 55 28 28 41
252 -118z m-431 37 c-27 -33 -207 -153 -294 -197 -112 -55 -263 -113 -272
-103 -10 9 93 111 149 147 48 31 158 79 313 135 105 39 124 42 104 18z m-4459
-246 l71 -82 -23 -18 c-35 -26 -87 -53 -92 -47 -21 21 -55 229 -38 229 6 0 43
-37 82 -82z m183 -220 c35 -46 124 -171 197 -278 73 -107 144 -210 158 -227
19 -26 21 -34 10 -38 -16 -6 -154 28 -306 75 l-104 31 -52 112 c-66 141 -106
241 -113 281 -4 29 0 35 59 78 34 26 68 47 75 48 7 0 41 -37 76 -82z m604
-727 c300 -81 484 -136 523 -156 50 -26 144 -145 127 -161 -3 -3 -90 -10 -194
-15 -103 -5 -316 -16 -473 -24 -157 -8 -397 -17 -535 -20 l-250 -6 60 55 c50
46 475 395 482 396 1 0 118 -31 260 -69z m4774 -83 c316 -261 339 -280 339
-289 0 -12 -204 -11 -630 1 -552 16 -1157 44 -1168 55 -2 2 4 18 13 35 25 48
94 119 137 141 61 31 967 206 1074 208 l51 1 184 -152z"/>
<path d="M2725 4176 c-52 -23 -69 -51 -69 -111 -1 -48 3 -58 31 -87 38 -38 77
-42 136 -13 47 22 71 57 70 100 -1 39 -27 91 -51 104 -33 18 -87 21 -117 7z"/>
<path d="M1988 3809 c-22 -12 -24 -62 -3 -79 20 -16 62 -5 70 19 8 25 -14 71
-34 71 -9 0 -24 -5 -33 -11z"/>
<path d="M2416 3249 c-33 -26 -33 -53 -1 -85 19 -19 31 -23 48 -18 34 10 57
35 57 60 0 23 -42 64 -65 64 -7 0 -24 -9 -39 -21z"/>
<path d="M5510 3483 c-64 -23 -44 -143 24 -143 32 0 66 40 66 77 0 47 -47 81
-90 66z"/>
<path d="M3479 7621 c-56 -56 -23 -141 55 -141 78 0 119 91 66 148 -31 33 -84
30 -121 -7z"/>
<path d="M4038 7261 c-30 -27 -31 -30 -19 -59 25 -61 90 -80 129 -39 29 31 28
72 -3 102 -32 33 -67 31 -107 -4z"/>
<path d="M3645 7174 c-9 -9 -15 -28 -13 -43 2 -20 9 -27 31 -29 52 -6 76 38
39 71 -23 21 -36 21 -57 1z"/>
<path d="M6905 7001 c-35 -21 -81 -72 -90 -100 -8 -27 -32 -31 -212 -31 -100
0 -163 -4 -163 -10 0 -6 72 -11 182 -12 l182 -3 22 -39 c13 -22 34 -52 49 -68
91 -96 265 -16 265 122 0 51 -19 88 -65 129 -30 26 -44 31 -88 31 -33 0 -63
-7 -82 -19z"/>
<path d="M722 6937 c-29 -31 -28 -69 4 -106 32 -38 73 -41 124 -9 32 20 51 22
238 26 112 2 200 8 195 13 -4 4 -93 9 -197 11 -175 3 -190 4 -200 22 -27 48
-54 66 -99 66 -33 0 -49 -6 -65 -23z"/>
<path d="M6373 6713 c-14 -5 -17 -31 -7 -57 8 -22 37 -20 58 3 31 35 -5 73
-51 54z"/>
<path d="M1220 6565 c-10 -12 -10 -21 -2 -40 18 -39 82 -31 82 9 0 43 -53 63
-80 31z"/>
<path d="M6360 6455 c-10 -12 -9 -20 4 -40 20 -30 37 -32 60 -6 26 28 13 61
-23 61 -16 0 -34 -7 -41 -15z"/>
<path d="M670 6328 c-49 -34 -58 -53 -40 -85 8 -14 27 -35 42 -46 23 -17 31
-18 56 -8 17 7 40 24 53 37 23 24 23 25 5 58 -14 27 -61 66 -79 66 -2 0 -19
-10 -37 -22z m50 -58 c0 -5 -7 -10 -16 -10 -8 0 -12 5 -9 10 3 6 10 10 16 10
5 0 9 -4 9 -10z"/>
<path d="M6928 5890 c-25 -26 -29 -36 -24 -63 9 -47 53 -87 94 -87 49 0 105
57 96 97 -3 15 -19 40 -35 56 -41 38 -90 37 -131 -3z"/>
<path d="M1114 5846 c-10 -27 1 -51 26 -54 31 -5 53 23 39 49 -12 22 -57 25
-65 5z"/>
<path d="M1612 5757 c-28 -30 -28 -49 1 -83 15 -17 33 -26 52 -26 32 0 75 40
75 70 0 60 -85 85 -128 39z m68 -37 c0 -5 -4 -10 -9 -10 -6 0 -13 5 -16 10 -3
6 1 10 9 10 9 0 16 -4 16 -10z"/>
<path d="M5432 5768 c-7 -7 -12 -37 -12 -67 1 -49 2 -54 14 -38 7 9 16 17 19
17 9 0 17 -48 11 -64 -5 -14 -9 -14 -35 1 -16 10 -29 23 -29 30 0 7 -4 13 -10
13 -5 0 -10 -4 -10 -9 0 -5 -12 -11 -27 -13 -19 -2 -32 -12 -41 -31 -14 -28
-41 -34 -49 -10 -4 11 1 17 47 52 21 16 23 21 11 35 -19 23 -53 16 -67 -12 -6
-13 -17 -29 -23 -35 -6 -6 -11 -30 -11 -53 l0 -42 39 5 c32 4 41 2 50 -15 15
-29 -2 -37 -34 -16 -22 14 -25 15 -31 1 -13 -34 0 -52 34 -49 32 2 32 2 16
-22 -8 -14 -13 -30 -9 -36 8 -14 38 -13 53 2 9 9 13 7 17 -5 3 -9 7 -24 10
-33 4 -13 13 -15 43 -9 47 9 52 12 52 36 0 23 4 24 36 3 13 -9 27 -14 30 -11
3 3 -1 36 -11 74 -26 106 -25 105 -46 100 -19 -5 -19 -4 1 22 10 15 26 34 35
41 28 23 18 48 -25 61 -22 7 -40 16 -40 21 0 5 9 6 20 3 16 -5 20 -2 20 17 0
22 -16 48 -30 48 -3 0 -11 -5 -18 -12z m-2 -188 c0 -16 -5 -30 -10 -30 -14 0
-24 26 -16 45 10 26 26 16 26 -15z m-63 -7 c-2 -10 -7 -25 -9 -33 -3 -8 -3
-12 -1 -7 7 11 23 -2 23 -19 0 -20 -24 -17 -45 6 -17 18 -17 21 -1 45 19 29
41 34 33 8z m96 -55 c30 -15 34 -26 12 -35 -16 -5 -55 22 -55 39 0 11 11 10
43 -4z m-85 -40 c18 -18 15 -25 -13 -30 -19 -4 -25 -1 -25 12 0 30 18 38 38
18z m54 -45 c-15 -31 -17 -33 -20 -14 -4 22 13 51 29 51 5 0 1 -16 -9 -37z"/>
<path d="M5340 5755 c-18 -22 -3 -55 27 -55 21 0 24 3 19 23 -3 12 -6 28 -6
35 0 17 -25 15 -40 -3z"/>
<path d="M5513 5724 c-3 -10 4 -26 20 -41 25 -26 25 -26 6 -42 -12 -10 -20
-31 -22 -56 -2 -37 0 -40 25 -40 14 0 30 -3 34 -7 16 -16 34 -7 34 16 0 27
-15 42 -25 26 -10 -17 -25 -11 -25 10 0 11 9 25 20 32 27 17 25 34 -5 54 -15
10 -25 26 -25 40 0 27 -27 33 -37 8z"/>
<path d="M1137 5658 c-21 -11 -22 -38 -3 -64 15 -19 15 -19 36 2 35 35 8 85
-33 62z"/>
<path d="M2198 5616 c-61 -17 -93 -38 -125 -86 -34 -52 -41 -125 -19 -184 23
-59 101 -132 152 -142 77 -14 170 30 222 106 43 64 25 180 -41 248 -58 61
-115 78 -189 58z"/>
<path d="M5542 5502 c-9 -7 -10 -15 -3 -35 12 -32 26 -34 41 -8 19 36 -6 63
-38 43z"/>
<path d="M2785 5361 c-66 -30 -98 -72 -103 -134 -6 -72 22 -127 86 -168 39
-25 55 -30 90 -26 51 6 116 46 142 90 36 58 23 146 -28 200 -56 59 -115 71
-187 38z"/>
<path d="M75 4461 c-72 -44 -91 -101 -56 -169 27 -53 56 -72 109 -72 54 0 92
19 131 66 l30 37 63 -23 c76 -27 243 -112 279 -141 22 -17 30 -19 48 -10 23
13 28 43 9 58 -7 6 -47 20 -88 33 -41 12 -124 44 -184 71 -92 41 -118 58 -167
109 -53 55 -60 60 -101 60 -24 0 -56 -8 -73 -19z"/>
<path d="M7745 4349 c-57 -16 -72 -68 -32 -115 61 -70 168 20 109 92 -22 27
-40 33 -77 23z"/>
<path d="M7200 4165 c-10 -12 -10 -21 -2 -40 13 -29 43 -33 67 -9 14 14 14 19
2 38 -18 26 -50 32 -67 11z"/>
<path d="M6793 4084 c-6 -17 12 -64 25 -64 4 0 16 6 27 13 27 21 13 67 -21 67
-13 0 -27 -7 -31 -16z"/>
<path d="M7245 3994 c-20 -20 -16 -73 6 -87 22 -14 73 12 77 40 4 24 -29 63
-52 63 -8 0 -22 -7 -31 -16z"/>
<path d="M7292 3778 c-18 -18 -14 -63 6 -81 25 -22 34 -21 60 6 38 41 23 87
-28 87 -14 0 -31 -5 -38 -12z"/>
<path d="M93 3668 c-67 -18 -84 -90 -32 -139 40 -37 73 -37 111 1 25 26 29 36
24 62 -14 68 -45 91 -103 76z"/>
<path d="M7831 3596 c-52 -29 -58 -86 -14 -131 39 -38 112 -29 145 19 17 25 7
68 -21 97 -32 32 -70 37 -110 15z"/>
<path d="M7866 2284 c-20 -19 -20 -25 -2 -49 12 -17 18 -18 40 -7 14 6 26 18
26 26 0 16 -26 46 -40 46 -5 0 -16 -7 -24 -16z"/>
<path d="M84 2254 c-8 -30 14 -58 38 -49 38 15 32 75 -7 75 -18 0 -26 -7 -31
-26z"/>
<path d="M1914 2020 c-31 -12 -72 -66 -84 -110 -14 -52 1 -109 41 -155 50 -56
122 -64 195 -21 88 53 103 192 27 254 -47 37 -129 52 -179 32z"/>
</g>
</svg>
