<?xml version="1.0" standalone="no"?>
<!DOCTYPE svg PUBLIC "-//W3C//DTD SVG 20010904//EN"
 "http://www.w3.org/TR/2001/REC-SVG-20010904/DTD/svg10.dtd">
<svg version="1.0" xmlns="http://www.w3.org/2000/svg"
 width="800.000000pt" height="800.000000pt" viewBox="0 0 800.000000 800.000000"
 preserveAspectRatio="xMidYMid meet">

<g transform="translate(0.000000,800.000000) scale(0.100000,-0.100000)"
fill="#000000" stroke="none">
<path d="M4282 6044 c-27 -18 -29 -60 -5 -94 12 -17 17 -44 16 -101 0 -69 -3
-81 -27 -109 -34 -41 -33 -74 4 -112 l30 -30 33 19 c43 26 49 71 13 118 -22
29 -26 44 -26 107 0 55 5 81 20 106 24 39 25 60 4 90 -18 26 -32 28 -62 6z"/>
<path d="M3544 6031 c-45 -28 -64 -59 -64 -109 0 -49 17 -86 55 -122 51 -47
166 -28 205 35 74 120 -76 269 -196 196z m126 -46 c63 -33 53 -129 -17 -156
-58 -22 -140 39 -129 95 14 68 79 95 146 61z"/>
<path d="M3578 5949 c-21 -12 -24 -59 -6 -77 15 -15 63 -16 89 -2 21 12 25 41
9 71 -12 21 -62 26 -92 8z"/>
<path d="M4988 5884 c-34 -18 -37 -50 -7 -88 25 -31 38 -33 67 -6 27 25 29 71
4 93 -22 20 -29 21 -64 1z"/>
<path d="M3030 5833 c-52 -19 -65 -71 -29 -117 25 -32 66 -34 103 -5 42 33 32
89 -21 117 -23 13 -30 13 -53 5z m64 -44 c16 -24 9 -57 -17 -73 -21 -13 -63 6
-70 33 -13 50 57 82 87 40z"/>
<path d="M3928 5829 c-18 -10 -24 -45 -10 -65 23 -34 92 -20 92 19 0 26 -28
57 -51 57 -8 0 -22 -5 -31 -11z"/>
<path d="M4522 5714 c-29 -20 -28 -55 2 -83 21 -20 27 -21 48 -10 29 15 38 28
38 56 0 21 -33 53 -55 53 -6 0 -21 -7 -33 -16z"/>
<path d="M4840 5696 c0 -32 12 -39 36 -22 15 12 16 16 5 30 -20 24 -41 20 -41
-8z"/>
<path d="M4997 5694 c-10 -10 -9 -52 2 -58 13 -8 33 20 29 40 -3 19 -20 28
-31 18z"/>
<path d="M3790 5642 c-14 -2 -39 -15 -57 -28 -31 -24 -36 -24 -236 -24 -189 0
-206 1 -230 20 -33 26 -60 25 -93 -3 -22 -19 -26 -29 -20 -50 12 -51 81 -65
115 -23 12 14 42 16 222 16 179 0 210 -2 221 -16 39 -48 69 -74 87 -74 36 0
69 18 87 49 17 29 22 30 91 33 96 4 100 22 6 26 -66 3 -74 5 -97 32 -28 34
-60 48 -96 42z"/>
<path d="M4837 5526 c-4 -43 -7 -100 -7 -126 0 -39 -5 -51 -34 -79 l-33 -32
-94 5 c-127 7 -132 7 -226 0 -72 -5 -88 -3 -123 15 l-39 20 -30 -24 c-26 -23
-38 -25 -123 -25 -74 0 -101 4 -130 20 -31 16 -42 18 -63 8 -30 -14 -33 -48
-6 -72 18 -16 22 -16 50 -2 42 22 247 23 279 1 19 -14 24 -14 51 0 42 21 188
21 219 -1 21 -14 25 -14 47 0 17 11 48 16 107 16 l83 0 72 72 73 72 29 -17
c56 -33 120 -13 140 44 l10 29 108 0 c128 0 142 -7 224 -99 60 -69 95 -84 174
-79 78 5 59 23 -27 26 l-77 3 -36 49 c-20 27 -59 67 -87 90 l-51 40 -113 0
c-107 0 -114 1 -140 25 -35 32 -66 40 -96 25 -39 -21 -57 -41 -64 -74 -14 -69
-44 -75 -45 -8 -1 26 -4 72 -8 102 l-6 55 -8 -79z m163 -20 c0 -3 -4 -8 -10
-11 -5 -3 -10 -1 -10 4 0 6 5 11 10 11 6 0 10 -2 10 -4z"/>
<path d="M5526 5577 c-25 -18 -23 -64 2 -90 21 -20 23 -20 57 -4 28 13 35 22
35 45 0 51 -53 79 -94 49z m69 -21 c17 -12 18 -18 7 -40 -13 -30 -52 -35 -72
-11 -10 12 -10 21 -2 40 13 28 39 32 67 11z"/>
<path d="M2917 5569 c-21 -12 -22 -42 -2 -59 12 -10 18 -10 30 0 32 26 7 78
-28 59z"/>
<path d="M4540 5556 c-15 -19 -5 -69 13 -63 15 4 22 56 9 69 -5 5 -14 3 -22
-6z"/>
<path d="M4270 5468 c0 -7 4 -19 9 -27 12 -19 43 -6 39 16 -4 21 -48 31 -48
11z"/>
<path d="M4076 5461 c-9 -14 4 -41 20 -41 8 0 14 10 14 25 0 25 -23 35 -34 16z"/>
<path d="M2288 5439 c-23 -13 -23 -61 0 -89 17 -21 21 -22 48 -9 22 11 30 22
32 47 5 54 -33 79 -80 51z"/>
<path d="M3373 5443 c-13 -5 -18 -55 -7 -66 10 -9 44 12 44 26 0 20 -24 45
-37 40z"/>
<path d="M4541 5426 c-18 -21 -10 -51 14 -51 24 0 30 24 12 49 -12 16 -14 16
-26 2z"/>
<path d="M2720 5354 c0 -8 5 -12 10 -9 6 3 10 10 10 16 0 5 -4 9 -10 9 -5 0
-10 -7 -10 -16z"/>
<path d="M5732 5338 c-18 -18 -14 -56 8 -78 16 -16 20 -33 20 -92 0 -109 17
-118 21 -12 3 76 7 92 27 112 26 26 27 31 6 60 -17 24 -62 30 -82 10z"/>
<path d="M5133 5323 c-12 -2 -33 -15 -47 -28 -35 -32 -36 -97 -3 -146 20 -29
29 -34 69 -37 86 -6 140 58 118 139 -16 60 -65 86 -137 72z m66 -38 c48 -24
56 -81 16 -120 -30 -30 -64 -32 -99 -4 -35 28 -36 80 -1 114 28 29 45 31 84
10z"/>
<path d="M3104 5296 c-18 -8 -35 -19 -38 -25 -4 -6 -39 -11 -84 -11 -42 0
-115 -3 -162 -7 l-85 -8 60 -6 c33 -4 103 -7 155 -8 l95 -1 20 -37 c11 -21 33
-44 49 -52 25 -12 33 -11 62 2 18 9 41 28 50 42 16 24 21 25 111 25 92 0 95
-1 125 -30 31 -31 60 -50 77 -50 5 0 23 12 40 26 38 32 40 66 6 99 -29 30 -60
32 -100 5 -25 -17 -47 -20 -133 -20 -95 0 -105 2 -125 23 -25 27 -59 47 -79
47 -7 -1 -27 -7 -44 -14z"/>
<path d="M2295 5280 c-8 -12 3 -50 14 -50 15 0 33 30 27 45 -6 17 -32 20 -41
5z"/>
<path d="M2582 5268 c-36 -36 6 -91 46 -62 27 19 28 50 3 64 -25 13 -34 13
-49 -2z"/>
<path d="M6028 5259 c-11 -6 -18 -22 -18 -38 0 -61 80 -83 109 -30 13 24 13
29 -2 53 -19 28 -57 34 -89 15z"/>
<path d="M2236 5172 c-9 -2 -15 -9 -13 -15 2 -8 40 -14 103 -17 140 -8 183
-35 184 -117 0 -17 5 -35 11 -39 9 -5 10 9 7 50 -5 57 -27 94 -73 119 -20 10
-187 25 -219 19z"/>
<path d="M6429 5149 c-26 -26 -20 -75 12 -101 19 -16 24 -16 49 -3 45 23 54
71 20 105 -26 26 -55 25 -81 -1z"/>
<path d="M5606 5134 c-7 -18 0 -34 15 -34 5 0 9 11 9 25 0 28 -15 34 -24 9z"/>
<path d="M1742 5133 c-25 -10 -33 -41 -18 -72 21 -39 38 -43 88 -21 58 26 137
26 189 -1 38 -19 42 -19 65 -4 28 18 31 50 8 83 -18 26 -42 23 -83 -9 -37 -30
-131 -26 -169 6 -29 24 -52 29 -80 18z"/>
<path d="M6050 5094 c0 -8 5 -12 10 -9 6 4 8 11 5 16 -9 14 -15 11 -15 -7z"/>
<path d="M2643 5083 c-17 -6 -16 -38 1 -52 10 -9 16 -8 25 3 23 28 4 62 -26
49z"/>
<path d="M2897 5082 c-12 -2 -17 -11 -15 -25 4 -27 45 -36 54 -12 8 21 -15 43
-39 37z"/>
<path d="M4379 5070 c-19 -10 -40 -30 -47 -45 l-12 -26 -273 5 c-149 3 -282 5
-295 6 -28 2 -62 -26 -62 -52 0 -22 34 -58 56 -58 9 0 28 14 42 30 l26 30 248
0 247 0 34 -34 c61 -60 130 -56 172 11 l20 32 93 1 93 0 38 -40 c22 -23 51
-43 69 -46 l32 -6 0 -80 c0 -50 4 -77 10 -73 6 3 10 41 10 83 1 74 2 78 35
115 l35 37 237 0 236 0 43 -40 c24 -22 51 -40 59 -40 31 0 84 29 101 55 l17
26 111 -7 c107 -6 112 -8 134 -35 30 -37 61 -37 97 1 26 27 34 30 95 30 58 0
70 -3 90 -25 30 -32 50 -32 80 0 20 21 22 28 12 50 -16 35 -35 40 -82 21 -22
-9 -69 -16 -103 -16 -52 0 -69 5 -97 25 -41 30 -54 31 -87 5 -22 -17 -41 -20
-133 -20 l-107 0 -41 40 c-28 28 -49 40 -69 40 -36 0 -89 -32 -98 -59 -6 -20
-13 -21 -213 -21 -114 0 -222 4 -241 10 -19 5 -48 25 -66 44 -17 19 -44 38
-59 42 -39 9 -97 -16 -121 -54 l-20 -31 -101 -1 -102 0 -13 31 c-8 20 -25 37
-45 45 -41 17 -41 17 -85 -6z m436 -40 c-3 -5 -11 -10 -16 -10 -6 0 -7 5 -4
10 3 6 11 10 16 10 6 0 7 -4 4 -10z m60 -1 c11 -17 -1 -21 -15 -4 -8 9 -8 15
-2 15 6 0 14 -5 17 -11z m650 -9 c-3 -5 -11 -10 -16 -10 -6 0 -7 5 -4 10 3 6
11 10 16 10 6 0 7 -4 4 -10z m-1144 -23 c-10 -9 -11 -8 -5 6 3 10 9 15 12 12
3 -3 0 -11 -7 -18z"/>
<path d="M3337 5053 c-12 -11 -7 -50 7 -62 16 -14 56 1 56 20 0 35 -42 63 -63
42z"/>
<path d="M2227 5044 c-3 -3 -3 -12 0 -19 4 -11 10 -11 29 -3 13 6 21 15 18 19
-6 10 -38 12 -47 3z"/>
<path d="M6467 4963 c-11 -10 -8 -41 4 -49 17 -10 32 12 24 35 -6 21 -16 26
-28 14z"/>
<path d="M2024 4911 c-10 -10 -3 -41 15 -62 17 -21 21 -22 36 -9 14 11 78 16
309 21 356 9 851 9 890 0 43 -9 66 -60 66 -146 0 -86 -11 -126 -44 -166 -41
-48 -29 -140 21 -168 15 -8 18 -24 18 -88 l0 -78 -192 -3 -193 -2 0 189 c0
104 -4 201 -10 215 -13 34 -77 104 -113 123 -46 24 -241 32 -749 33 -444 0
-457 1 -463 20 -10 31 -63 70 -96 70 -42 0 -85 -24 -106 -60 l-17 -30 -102 0
c-98 0 -103 1 -139 30 -38 30 -62 32 -92 8 -16 -13 -17 -52 -2 -81 24 -44 46
-47 87 -12 28 23 37 25 140 25 l109 0 24 -35 c13 -19 39 -42 57 -50 l32 -16 1
-82 c1 -45 4 -93 8 -107 6 -20 9 -15 14 30 4 30 7 78 7 106 0 44 5 56 33 86
17 19 37 41 42 49 9 13 82 14 582 8 l572 -7 46 -33 c81 -58 89 -82 93 -251 l4
-148 -45 6 c-65 9 -96 -2 -140 -49 l-39 -42 -182 0 -182 0 -45 48 c-65 67
-115 62 -187 -17 l-32 -36 -203 0 c-111 0 -212 3 -224 6 -12 3 -34 26 -48 50
-26 45 -53 56 -73 31 -16 -19 18 -70 68 -103 40 -26 42 -27 267 -32 l227 -5
53 -41 c52 -40 53 -42 54 -96 l2 -55 10 58 c7 46 15 61 36 74 14 9 42 30 61
47 l35 31 185 -5 185 -6 41 -40 c24 -23 56 -44 74 -47 41 -9 112 21 135 57
l18 26 181 -2 181 -3 3 -251 2 -251 -91 -6 c-51 -4 -225 -7 -387 -7 l-294 0
-134 113 c-73 61 -148 117 -166 124 -18 7 -81 12 -140 12 l-107 1 -16 29 c-21
41 -53 61 -98 61 -49 0 -91 -22 -114 -60 l-17 -30 -212 0 -212 0 -20 34 c-12
19 -39 44 -61 56 l-41 20 0 65 0 65 61 0 c76 0 106 -14 194 -91 39 -34 80 -65
93 -70 34 -13 72 5 72 35 0 29 -16 42 -48 37 -15 -2 -42 14 -85 52 -34 30 -72
59 -84 66 -12 6 -62 11 -112 11 l-91 0 0 58 c0 57 1 59 37 83 52 33 67 67 53
118 -13 51 -51 81 -101 81 -51 0 -87 -18 -105 -51 -27 -52 -12 -111 38 -147
40 -29 48 -44 48 -93 l0 -50 -157 3 c-153 3 -158 4 -169 26 -24 49 -56 72 -98
72 -76 0 -136 -59 -121 -119 3 -13 21 -39 40 -58 49 -49 95 -44 162 19 l32 30
155 -7 156 -7 0 -67 c0 -67 0 -67 -35 -84 -64 -31 -86 -103 -50 -165 50 -84
175 -80 220 8 l16 30 213 0 213 0 24 -26 c57 -62 109 -66 175 -13 34 27 43 29
118 29 l81 -1 135 -115 c74 -64 153 -128 174 -142 l40 -27 392 -4 c275 -2 398
-7 409 -15 13 -9 15 -42 13 -249 l-3 -238 -140 116 c-77 64 -167 137 -200 162
l-60 45 -921 -3 -920 -4 -33 28 c-83 69 -200 -8 -154 -102 10 -20 32 -42 48
-50 17 -8 37 -17 45 -21 11 -5 15 -23 15 -59 -1 -41 -6 -56 -28 -79 l-27 -28
30 -22 c24 -18 34 -20 50 -12 24 13 25 37 5 76 -8 16 -15 52 -15 81 0 44 4 56
27 78 l28 25 885 0 886 0 65 -52 c103 -82 696 -596 766 -663 l62 -60 -9 -935
c-5 -536 -14 -963 -19 -1001 -6 -37 -23 -95 -38 -130 -25 -57 -28 -60 -34 -37
-4 15 -10 375 -14 802 l-8 776 -83 79 c-75 72 -505 444 -615 533 -80 65 -159
84 -234 55 -43 -17 -177 -95 -238 -139 l-51 -38 -113 0 -112 0 -125 124 c-93
93 -127 121 -136 112 -7 -7 -90 -12 -255 -14 -223 -3 -245 -2 -245 13 0 9 -13
30 -29 46 -26 26 -32 28 -60 18 -37 -13 -40 -11 -170 91 -117 91 -114 90 -209
81 -129 -13 -152 -38 -152 -162 l0 -70 -173 3 -172 3 -41 33 c-69 55 -155 53
-225 -5 -117 -99 -49 -273 107 -273 95 0 159 60 171 159 l6 51 251 0 c206 0
256 -3 272 -15 57 -43 117 22 64 70 -19 17 -23 17 -70 -10 -15 -9 -52 -15 -92
-15 l-68 0 0 69 c0 58 4 74 23 97 21 24 30 26 88 26 83 -1 125 -18 210 -88 62
-51 88 -80 114 -128 5 -11 22 -28 38 -40 25 -19 30 -19 60 -6 24 11 88 15 252
18 121 2 235 0 253 -3 25 -5 63 -35 151 -120 l117 -114 155 -4 c84 -2 168 -8
185 -12 26 -6 42 1 120 53 116 78 134 86 179 78 44 -9 112 -63 471 -377 l274
-240 -6 -777 -7 -777 -33 -44 c-41 -53 -117 -112 -198 -153 -76 -38 -264 -100
-381 -124 l-90 -19 65 -6 c84 -9 1993 -8 2085 0 l70 6 -90 18 c-137 29 -318
83 -399 121 -147 67 -260 163 -277 232 -4 22 -9 339 -9 705 l0 666 95 82 94
81 614 0 614 0 59 -46 c78 -61 118 -80 183 -88 43 -6 63 -15 93 -42 24 -21 48
-34 66 -34 39 0 90 35 109 75 l17 35 114 0 115 0 38 -35 c50 -45 87 -47 123
-4 30 35 32 58 11 99 -13 25 -22 30 -53 30 -30 0 -48 -8 -80 -36 l-42 -36
-113 4 -114 3 -35 38 c-28 30 -43 37 -72 37 -42 0 -92 -23 -116 -52 -15 -19
-17 -19 -75 21 -33 22 -87 65 -120 95 l-60 54 -5 260 c-6 337 14 309 -228 314
-150 3 -183 6 -214 23 -37 18 -39 18 -75 0 -29 -14 -68 -19 -163 -23 l-125 -4
45 46 46 46 680 7 680 6 36 -31 c53 -47 99 -45 149 8 l38 40 183 0 182 0 36
-41 c28 -32 44 -42 78 -46 l42 -6 0 -51 c0 -29 -5 -57 -11 -63 -8 -8 -8 -13 0
-17 7 -5 11 -47 11 -109 0 -106 6 -147 21 -147 5 0 9 56 9 125 l0 125 88 0
c80 0 91 -3 131 -30 24 -17 50 -30 58 -30 10 0 13 -18 13 -72 0 -64 -4 -78
-30 -117 -30 -44 -30 -44 -12 -75 24 -41 68 -47 107 -13 34 29 30 61 -15 104
-28 26 -30 33 -30 95 0 50 4 71 16 80 59 47 74 68 74 101 l0 35 66 7 c83 9
150 2 173 -19 37 -34 111 -7 111 40 0 28 -32 64 -57 64 -9 0 -35 -12 -57 -27
-35 -25 -49 -28 -139 -31 -91 -4 -102 -2 -131 19 -64 48 -154 16 -177 -62
l-12 -39 -89 0 -88 0 0 52 c0 43 6 60 38 106 l37 54 78 -6 c42 -4 88 -12 102
-18 19 -9 36 -8 76 5 28 10 61 17 73 17 38 0 55 22 62 80 8 67 -10 59 -23 -10
-8 -43 -10 -45 -48 -48 -22 -2 -55 4 -77 14 -37 17 -41 17 -68 1 -20 -12 -51
-17 -104 -17 l-76 0 -14 33 c-28 60 -62 87 -113 87 -38 0 -97 -42 -113 -80
l-13 -31 -187 3 -187 3 -31 33 c-25 27 -37 32 -76 32 -37 0 -52 -6 -81 -32
l-36 -31 -526 6 c-289 4 -527 8 -529 10 -2 1 -6 32 -10 68 l-6 66 170 6 c93 4
182 11 197 17 15 6 50 31 77 55 27 24 66 49 86 55 20 5 107 10 193 10 121 0
159 -3 175 -15 27 -20 68 -18 88 4 23 25 18 49 -15 73 -23 18 -29 18 -50 7
-17 -10 -68 -14 -179 -14 -132 0 -160 3 -189 18 -53 29 -88 17 -185 -68 l-85
-75 -136 0 -136 0 3 27 c3 25 8 28 64 38 77 14 84 19 226 153 88 84 124 112
151 117 19 4 104 5 188 3 122 -3 161 -7 186 -21 l32 -17 63 55 c35 30 77 59
92 65 16 6 122 10 264 10 187 -1 242 -4 262 -15 51 -29 100 -7 100 46 0 51
-51 65 -105 28 -29 -19 -42 -20 -297 -17 -260 2 -268 2 -290 -19 -17 -15 -35
-21 -65 -20 -33 1 -48 -4 -71 -26 l-28 -27 -199 0 -199 0 -126 -124 c-128
-127 -156 -146 -215 -146 l-33 0 -4 219 c-3 205 -4 221 -24 248 -35 46 -79 66
-160 71 l-74 5 0 48 c0 27 -4 49 -10 49 -5 0 -10 -12 -10 -27 0 -73 5 -71
-168 -75 -169 -4 -193 -10 -242 -63 l-25 -27 -3 -263 -3 -264 -182 -177 -182
-177 -8 104 c-8 119 -4 171 20 216 14 26 15 36 5 58 -16 34 -37 41 -68 20 -23
-15 -25 -21 -19 -53 4 -21 9 -116 12 -213 l4 -176 -65 -69 -65 -69 0 535 -1
535 178 152 c97 84 233 203 302 264 69 61 147 127 175 147 l49 37 258 5 257 5
34 33 34 33 294 -5 c162 -3 312 -6 334 -7 22 -1 252 2 510 8 l470 10 30 -29
c38 -34 55 -35 84 -4 17 18 22 32 17 50 -10 41 -40 51 -101 31 -47 -14 -104
-16 -521 -11 -258 2 -478 5 -489 6 -11 1 -140 -2 -286 -6 -303 -8 -309 -6
-238 57 l44 38 424 0 c266 -1 427 3 433 9 5 5 8 18 6 28 -3 18 -18 19 -193 24
-105 3 -321 3 -481 0 l-291 -5 -77 -60 c-134 -105 -102 -96 -351 -93 l-220 3
-51 -28 c-55 -31 -292 -226 -494 -406 -68 -61 -128 -111 -133 -111 -15 0 -4
561 11 588 12 20 19 22 111 22 l99 0 6 -31 c3 -17 19 -44 35 -60 43 -43 101
-41 147 5 39 39 44 75 15 122 -10 17 -33 37 -51 44 -29 12 -39 11 -84 -6 -37
-14 -87 -20 -188 -24 -173 -6 -170 -5 -180 -138 -4 -53 -10 -581 -14 -1172
l-7 -1075 -29 -59 c-16 -32 -32 -56 -35 -53 -2 3 -9 491 -14 1084 -4 593 -11
1102 -14 1130 -11 97 -14 98 -234 101 l-191 3 0 63 c0 56 4 70 35 115 45 64
45 95 0 160 -34 49 -36 56 -38 144 -2 74 1 97 16 117 9 13 17 34 17 46 0 50
15 49 -717 49 -377 0 -686 -2 -689 -4z m-474 -116 c32 -18 25 -18 -25 0 -22 8
-31 14 -20 14 11 0 31 -6 45 -14z m-70 -85 c0 -5 -2 -10 -4 -10 -3 0 -8 5 -11
10 -3 6 -1 10 4 10 6 0 11 -4 11 -10z m1924 -186 c32 -31 8 -104 -33 -104 -11
0 -7 7 13 23 23 19 28 29 22 50 -8 35 -43 45 -68 19 -19 -19 -20 -22 -4 -53
16 -32 16 -32 -4 -14 -24 22 -26 52 -3 77 20 22 56 23 77 2z m-2251 -114 c-3
-12 -8 -19 -11 -16 -5 6 5 36 12 36 2 0 2 -9 -1 -20z m3172 -40 c-3 -5 -11
-10 -16 -10 -6 0 -7 5 -4 10 3 6 11 10 16 10 6 0 7 -4 4 -10z m-3083 -22 c-7
-7 -12 -8 -12 -2 0 14 12 26 19 19 2 -3 -1 -11 -7 -17z m1642 -109 c50 -39 18
-129 -45 -129 -45 0 -83 42 -75 83 13 65 68 87 120 46z m-724 -14 c-7 -9 -15
-13 -17 -11 -7 7 7 26 19 26 6 0 6 -6 -2 -15z m87 0 c9 -24 -1 -27 -15 -5 -8
13 -8 20 -2 20 6 0 13 -7 17 -15z m-1522 -25 c-10 -11 -20 -18 -23 -15 -7 6
18 35 31 35 5 0 2 -9 -8 -20z m3004 -69 c12 -8 14 -67 13 -367 -1 -217 -6
-362 -12 -368 -6 -6 -25 4 -54 30 -25 21 -92 80 -149 129 -58 50 -108 97 -111
105 -4 7 -10 119 -13 247 l-6 233 159 0 c87 0 165 -4 173 -9z m-2479 -217 c17
-10 18 -13 5 -9 -49 17 -58 17 -86 -4 -16 -12 -29 -18 -29 -13 0 14 42 41 65
41 11 0 31 -7 45 -15z m620 2 c0 -3 -4 -8 -10 -11 -5 -3 -10 -1 -10 4 0 6 5
11 10 11 6 0 10 -2 10 -4z m75 -16 c3 -5 1 -10 -4 -10 -6 0 -11 5 -11 10 0 6
2 10 4 10 3 0 8 -4 11 -10z m-798 -62 c-3 -8 -6 -5 -6 6 -1 11 2 17 5 13 3 -3
4 -12 1 -19z m117 -23 c-4 -8 -11 -15 -16 -15 -6 0 -5 6 2 15 7 8 14 15 16 15
2 0 1 -7 -2 -15z m3897 -248 c20 -10 41 -29 48 -43 7 -16 11 -96 11 -220 l0
-196 -124 4 c-101 2 -128 6 -143 21 -25 22 -45 22 -85 -3 -28 -17 -51 -20
-140 -20 l-108 0 0 199 c0 188 1 200 22 226 39 50 65 55 283 52 168 -2 206 -5
236 -20z m-1581 -226 l160 -143 -1 -212 c0 -116 -4 -230 -7 -252 l-7 -42 -155
139 c-85 76 -158 138 -162 139 -5 0 -8 117 -8 261 0 163 4 259 10 257 5 -1 81
-68 170 -147z m1274 -297 c36 -35 14 -44 -108 -44 -98 0 -135 13 -123 44 9 23
208 24 231 0z m366 -15 l0 -31 -124 4 c-69 2 -127 5 -130 8 -3 3 -3 16 1 28 5
21 10 22 129 22 l124 0 0 -31z m0 -170 l0 -79 -150 0 c-110 0 -158 -4 -178
-14 -30 -15 -231 -187 -559 -476 l-210 -185 -7 -865 c-5 -476 -11 -872 -16
-880 -11 -19 -37 43 -50 119 -6 31 -15 458 -20 951 l-10 895 312 306 313 307
288 0 287 1 0 -80z m1890 -49 c13 -13 20 -32 19 -57 l-1 -38 -8 32 c-10 44
-27 63 -56 63 -26 0 -64 -32 -64 -53 0 -7 7 -23 16 -35 8 -12 11 -22 5 -22
-18 0 -33 41 -26 68 15 61 75 82 115 42z m-1860 -220 c15 -28 -4 -60 -35 -60
-31 0 -50 32 -35 60 6 12 21 20 35 20 14 0 29 -8 35 -20z m2128 -19 c-13 -15
-25 -27 -27 -25 -7 6 29 54 40 54 6 0 0 -13 -13 -29z m-2234 -26 c9 -14 27
-32 41 -41 21 -14 30 -14 56 -4 16 7 37 26 45 41 l15 29 151 0 c214 0 198 22
198 -282 l0 -238 -62 -1 c-35 0 -315 -4 -624 -8 -627 -7 -566 0 -665 -83 -25
-21 -49 -38 -53 -38 -5 0 -6 26 -4 57 5 57 6 58 84 132 43 41 175 161 293 268
l215 193 147 0 c145 0 147 0 163 -25z"/>
<path d="M4981 3521 c-22 -22 -18 -67 8 -81 22 -11 65 9 69 33 5 23 -24 67
-43 67 -8 0 -23 -8 -34 -19z"/>
<path d="M5916 4833 c-9 -9 -8 -61 2 -67 18 -11 33 11 26 38 -7 28 -17 39 -28
29z"/>
<path d="M6490 4829 c-37 -15 -78 -58 -85 -89 -7 -32 16 -94 47 -127 12 -13
39 -28 61 -34 74 -20 159 47 159 125 0 95 -94 160 -182 125z m91 -69 c29 -16
26 -67 -5 -81 -29 -14 -72 -5 -80 16 -4 12 -2 13 13 3 11 -7 26 -8 37 -3 11 4
25 7 32 6 16 -3 15 19 -3 43 -13 17 -18 18 -41 7 -29 -13 -48 -6 -24 9 20 13
47 12 71 0z"/>
<path d="M5724 4816 c-8 -20 -1 -49 11 -53 6 -2 19 3 29 10 15 11 17 17 7 35
-13 25 -39 29 -47 8z"/>
<path d="M4692 4798 c2 -12 10 -23 18 -23 22 0 19 39 -3 43 -15 3 -18 -1 -15
-20z"/>
<path d="M3974 4796 c-10 -26 1 -51 21 -51 23 0 32 30 15 50 -16 19 -29 19
-36 1z"/>
<path d="M6193 4794 c-3 -8 1 -22 9 -30 12 -12 17 -12 33 -1 23 17 14 47 -15
47 -11 0 -23 -7 -27 -16z"/>
<path d="M5108 4789 c-22 -12 -23 -48 -3 -75 8 -10 15 -37 16 -59 1 -22 5 -53
8 -70 6 -23 8 -14 12 42 3 52 10 77 24 93 37 41 -9 98 -57 69z"/>
<path d="M6115 4790 c-3 -5 -1 -10 4 -10 6 0 11 5 11 10 0 6 -2 10 -4 10 -3 0
-8 -4 -11 -10z"/>
<path d="M4473 4783 c-16 -6 -17 -39 -2 -49 6 -3 18 1 27 10 14 14 14 18 2 30
-8 7 -21 12 -27 9z"/>
<path d="M5280 4766 c0 -32 18 -43 37 -23 20 20 10 47 -17 47 -15 0 -20 -7
-20 -24z"/>
<path d="M4240 4735 c-17 -20 -5 -45 20 -45 11 0 23 7 26 15 6 15 -11 45 -26
45 -4 0 -13 -7 -20 -15z"/>
<path d="M5890 4670 c-28 -30 -28 -30 -142 -30 -106 0 -117 2 -148 25 -41 30
-61 31 -84 6 -22 -24 -17 -70 9 -87 17 -11 27 -10 64 6 64 29 257 29 294 0 20
-16 31 -18 50 -11 14 6 28 15 32 20 10 17 185 14 219 -4 26 -14 31 -14 52 0
28 18 29 23 9 52 -14 19 -17 20 -52 7 -55 -19 -207 -18 -227 2 -9 8 -16 19
-16 24 0 4 -7 11 -16 14 -10 4 -26 -5 -44 -24z"/>
<path d="M6977 4682 c-22 -25 -21 -75 1 -95 58 -53 127 38 72 93 -25 25 -52
26 -73 2z"/>
<path d="M4639 4637 c-28 -19 -35 -30 -37 -65 -3 -36 1 -47 28 -73 27 -27 36
-31 67 -26 93 15 121 124 44 170 -39 23 -61 21 -102 -6z"/>
<path d="M1100 4626 c0 -14 5 -26 10 -26 6 0 10 9 10 19 0 11 -4 23 -10 26 -6
4 -10 -5 -10 -19z"/>
<path d="M3749 4635 c-69 -38 -55 -143 22 -160 36 -8 93 18 107 50 11 25 14
25 131 25 66 0 132 5 148 11 15 6 102 15 192 20 166 9 186 13 176 30 -11 16
-290 11 -351 -7 -40 -11 -86 -15 -167 -12 -103 3 -115 5 -151 31 -43 30 -68
33 -107 12z"/>
<path d="M4980 4640 c0 -5 5 -10 10 -10 6 0 10 5 10 10 0 6 -4 10 -10 10 -5 0
-10 -4 -10 -10z"/>
<path d="M5313 4634 c-3 -8 2 -23 11 -32 14 -15 18 -15 31 -1 9 9 13 23 9 32
-8 21 -43 22 -51 1z"/>
<path d="M928 4609 c-22 -13 -23 -27 -2 -50 13 -14 21 -16 35 -8 22 11 25 39
7 57 -14 14 -18 14 -40 1z"/>
<path d="M1798 4590 c-25 -26 -30 -36 -25 -65 7 -45 34 -84 63 -91 33 -8 95
25 119 63 l20 32 103 1 c82 0 110 -4 141 -19 37 -19 37 -19 82 2 38 19 60 21
172 20 137 -1 126 3 224 -69 15 -11 26 -13 40 -5 10 5 26 12 37 15 18 6 18 7
2 25 -10 10 -43 33 -75 50 -59 31 -60 31 -214 31 -139 0 -157 2 -180 20 -33
26 -36 26 -88 -10 -42 -28 -50 -30 -145 -30 -99 0 -102 1 -132 30 -45 42 -101
42 -144 0z m112 -20 c23 -23 24 -30 8 -65 -24 -54 -108 -35 -108 25 0 56 60
80 100 40z"/>
<path d="M611 4581 c-28 -28 -26 -47 8 -82 24 -23 34 -27 53 -20 13 4 30 20
38 35 13 23 13 29 0 54 -20 36 -70 42 -99 13z"/>
<path d="M6388 4480 c-19 -15 -21 -22 -12 -37 14 -23 44 -28 68 -10 15 11 16
17 8 34 -17 30 -38 35 -64 13z"/>
<path d="M6611 4481 c-7 -11 -19 -21 -29 -21 -9 0 -24 -4 -32 -10 -11 -7 -8
-11 15 -20 58 -22 96 12 66 59 -7 11 -11 9 -20 -8z"/>
<path d="M5110 4475 c-14 -8 -50 -15 -80 -15 -39 0 -51 -3 -40 -10 8 -5 38
-10 66 -10 27 0 55 -5 61 -11 8 -8 17 -8 32 0 24 13 27 31 9 49 -15 15 -17 15
-48 -3z"/>
<path d="M7272 4468 c-31 -31 0 -94 40 -79 36 13 44 35 25 65 -19 28 -45 34
-65 14z"/>
<path d="M6690 4460 c-11 -7 -12 -14 -4 -27 14 -23 27 -26 49 -9 16 12 17 16
6 30 -15 18 -29 20 -51 6z"/>
<path d="M6871 4451 c-10 -7 -11 -13 -2 -30 14 -25 29 -27 38 -5 8 21 -18 46
-36 35z"/>
<path d="M885 4430 c-8 -14 3 -30 21 -30 8 0 14 9 14 20 0 21 -24 28 -35 10z"/>
<path d="M7080 4421 c0 -11 5 -23 11 -27 14 -8 29 14 22 33 -8 20 -33 16 -33
-6z"/>
<path d="M655 4381 c-8 -26 1 -42 20 -34 19 7 19 27 1 42 -11 10 -16 8 -21 -8z"/>
<path d="M7084 4296 c-7 -19 3 -36 22 -36 10 0 14 8 12 22 -4 26 -26 36 -34
14z"/>
<path d="M566 4201 c-7 -10 22 -37 30 -28 9 8 -3 37 -15 37 -5 0 -12 -4 -15
-9z"/>
<path d="M7255 4191 c-56 -25 -92 -71 -101 -127 l-6 -45 -152 3 -152 3 -50 43
-50 42 -207 0 c-155 0 -217 4 -250 15 -37 13 -49 13 -91 0 -61 -19 -178 -19
-230 0 -34 12 -43 12 -67 -1 -40 -20 -42 -29 -14 -60 22 -24 25 -35 25 -103 0
-95 -6 -115 -35 -131 -13 -7 -38 -32 -55 -56 l-31 -44 -122 0 c-83 0 -117 -3
-107 -10 8 -5 67 -10 130 -10 l114 0 36 -41 c29 -35 41 -41 73 -41 44 0 82 23
104 60 l16 27 111 -7 111 -7 33 31 c36 36 42 79 18 127 -14 27 -53 51 -82 51
-30 0 -81 -31 -93 -56 -6 -14 -11 -45 -11 -69 l0 -45 -39 0 c-34 0 -42 5 -59
33 -12 17 -37 47 -57 65 l-37 32 7 78 c4 42 12 88 19 102 11 24 15 25 111 25
91 0 103 -2 133 -25 l33 -24 42 22 c39 21 55 22 237 22 l195 0 58 -50 59 -50
172 0 173 0 24 -26 c35 -38 72 -54 124 -54 153 0 219 157 112 268 -28 29 -80
52 -117 52 -8 0 -33 -9 -55 -19z m-979 -346 c32 -50 -6 -111 -64 -102 -45 8
-62 24 -62 58 0 64 92 96 126 44z m-356 -65 c-8 -5 -22 -10 -30 -10 -13 0 -13
1 0 10 8 5 22 10 30 10 13 0 13 -1 0 -10z"/>
<path d="M5512 4088 c-25 -25 -6 -84 28 -88 29 -4 40 0 55 24 24 36 3 76 -40
76 -17 0 -36 -5 -43 -12z"/>
<path d="M363 4054 c-45 -23 -64 -47 -69 -91 -6 -48 22 -97 71 -120 45 -21
102 -6 139 38 77 91 -34 228 -141 173z m111 -55 c34 -40 33 -54 -9 -96 -30
-30 -40 -35 -68 -29 -63 12 -87 78 -46 130 31 39 88 37 123 -5z"/>
<path d="M5242 4018 c-23 -23 -7 -68 25 -68 18 0 35 37 28 60 -7 22 -35 26
-53 8z"/>
<path d="M5003 4013 c-17 -6 -17 -48 0 -62 23 -18 51 10 43 42 -6 26 -17 31
-43 20z"/>
<path d="M7655 3995 c-31 -30 -31 -46 0 -83 21 -25 25 -40 25 -93 0 -54 -5
-71 -29 -107 -33 -50 -31 -72 10 -107 32 -26 50 -25 87 8 32 30 28 64 -13 103
-33 31 -35 36 -35 97 0 58 3 67 30 95 35 38 37 51 9 86 -26 33 -53 33 -84 1z"/>
<path d="M5810 4000 c0 -5 5 -10 11 -10 5 0 7 5 4 10 -3 6 -8 10 -11 10 -2 0
-4 -4 -4 -10z"/>
<path d="M5712 3978 c-18 -18 -15 -28 7 -28 26 0 34 15 18 29 -10 8 -17 7 -25
-1z"/>
<path d="M6515 3895 c-32 -31 -32 -74 0 -109 31 -34 67 -33 106 2 27 24 31 33
25 56 -9 38 -50 76 -81 76 -14 0 -37 -11 -50 -25z m83 -17 c22 -22 14 -67 -13
-80 -21 -9 -28 -8 -45 7 -24 22 -25 34 -4 63 17 24 43 29 62 10z"/>
<path d="M5252 3888 c-14 -14 -4 -38 14 -31 15 6 19 29 6 37 -5 3 -14 0 -20
-6z"/>
<path d="M5440 3876 c-18 -23 -8 -61 17 -64 31 -5 47 28 27 56 -18 26 -27 27
-44 8z"/>
<path d="M692 3871 c-20 -12 -10 -46 13 -46 14 0 20 7 20 24 0 27 -13 35 -33
22z"/>
<path d="M5000 3840 c0 -27 3 -31 23 -28 16 2 22 10 22 28 0 18 -6 26 -22 28
-20 3 -23 -1 -23 -28z"/>
<path d="M870 3815 c-18 -22 15 -61 37 -43 18 15 13 52 -8 56 -9 1 -22 -4 -29
-13z"/>
<path d="M6999 3797 c-29 -22 -37 -48 -27 -79 21 -58 101 -55 122 5 19 53 -52
108 -95 74z"/>
<path d="M5447 3743 c-4 -3 -7 -17 -7 -30 0 -27 34 -33 44 -7 10 25 -20 55
-37 37z"/>
<path d="M5242 3728 c-15 -15 -16 -45 -1 -53 18 -12 59 4 59 23 0 20 -18 42
-35 42 -6 0 -16 -5 -23 -12z"/>
<path d="M7194 3699 c-3 -6 -2 -15 4 -21 12 -12 64 2 70 20 5 15 -64 16 -74 1z"/>
<path d="M7326 3701 c-4 -5 2 -15 13 -20 23 -13 83 -3 78 13 -5 14 -83 20 -91
7z"/>
<path d="M7474 3699 c-9 -15 15 -29 51 -29 17 0 36 4 44 9 24 15 1 31 -44 31
-24 0 -47 -5 -51 -11z"/>
<path d="M575 3676 c-23 -16 -13 -46 15 -46 15 0 20 7 20 24 0 31 -12 39 -35
22z"/>
<path d="M813 3631 c-141 -72 -143 -77 -142 -328 1 -133 4 -185 10 -158 4 22
8 102 8 178 1 151 10 186 57 231 37 34 84 43 116 22 22 -14 27 -14 61 4 47 25
208 28 264 5 19 -8 72 -51 117 -95 l82 -80 805 0 c694 0 808 -2 833 -15 15 -8
30 -15 32 -15 2 0 4 18 4 40 l0 40 -748 0 c-412 0 -784 3 -826 7 l-77 6 -92
84 -91 83 -126 0 c-91 0 -133 4 -154 15 -39 20 -50 18 -133 -24z"/>
<path d="M6396 3634 c-21 -20 -20 -37 2 -56 11 -11 24 -13 38 -8 31 12 36 25
23 54 -14 29 -40 34 -63 10z"/>
<path d="M5448 3634 c-8 -7 2 -44 12 -44 11 0 18 22 12 38 -4 13 -15 16 -24 6z"/>
<path d="M7040 3556 c0 -27 28 -43 36 -21 9 21 -3 45 -21 45 -9 0 -15 -9 -15
-24z"/>
<path d="M7265 3519 c-28 -25 -35 -38 -35 -68 0 -43 31 -98 63 -110 22 -9 83
-2 118 13 9 4 24 22 34 40 15 28 16 38 6 69 -29 86 -120 114 -186 56z m125
-41 c0 -6 -6 -5 -15 2 -8 7 -15 14 -15 16 0 2 7 1 15 -2 8 -4 15 -11 15 -16z
m-97 -3 c-3 -9 -8 -14 -10 -11 -3 3 -2 9 2 15 9 16 15 13 8 -4z"/>
<path d="M5754 3530 c-29 -12 -37 -26 -30 -56 5 -20 12 -25 33 -22 14 2 32 12
40 24 12 18 11 24 -4 42 -14 15 -23 18 -39 12z"/>
<path d="M532 3468 c-31 -31 4 -93 49 -86 12 2 28 12 36 24 27 42 -49 98 -85
62z"/>
<path d="M5441 3406 c-9 -11 -10 -20 -1 -36 13 -24 38 -23 53 1 23 37 -25 68
-52 35z"/>
<path d="M7050 3405 c-16 -19 -6 -45 19 -45 23 0 35 28 20 46 -15 18 -24 18
-39 -1z"/>
<path d="M4227 3312 c-34 -38 -9 -102 40 -102 23 0 63 39 63 63 0 25 -36 57
-63 57 -13 0 -31 -8 -40 -18z"/>
<path d="M6407 3303 c-13 -12 -7 -60 8 -73 12 -10 20 -9 40 4 27 18 32 45 13
64 -13 13 -50 16 -61 5z"/>
<path d="M324 3260 c-12 -4 -31 -21 -44 -37 -28 -36 -22 -85 16 -125 33 -34
75 -37 122 -8 45 28 56 60 36 111 -23 57 -76 81 -130 59z m90 -46 c19 -18 20
-44 4 -79 -14 -32 -48 -41 -85 -23 -22 10 -29 21 -31 49 -2 24 3 42 13 53 21
20 79 21 99 0z"/>
<path d="M6581 3203 c-36 -31 -50 -70 -39 -111 13 -47 32 -68 75 -83 43 -14
74 -6 116 30 28 25 44 30 113 36 74 7 85 5 134 -18 50 -24 56 -25 89 -11 19 8
41 19 48 26 19 15 171 4 210 -16 29 -15 33 -14 54 3 21 17 22 22 11 45 -16 35
-38 42 -72 22 -20 -11 -52 -16 -113 -16 -84 0 -85 0 -96 29 -26 62 -92 65
-144 5 -30 -33 -32 -34 -112 -34 l-81 0 -13 35 c-18 50 -54 75 -111 75 -31 0
-55 -6 -69 -17z m32 -113 c3 -11 1 -20 -4 -20 -5 0 -9 2 -9 4 0 2 -3 11 -6 20
-3 9 -2 16 4 16 5 0 12 -9 15 -20z"/>
<path d="M2223 3133 c-19 -7 -16 -37 5 -55 36 -32 84 16 50 50 -12 12 -33 14
-55 5z"/>
<path d="M1215 3116 c-54 -23 -70 -88 -32 -130 50 -56 137 -24 137 50 0 26 -8
43 -29 65 -33 33 -35 33 -76 15z m64 -40 c17 -20 10 -67 -11 -79 -27 -18 -68
7 -68 41 0 15 5 33 12 40 16 16 53 15 67 -2z"/>
<path d="M7575 3121 c-75 -31 -97 -114 -49 -184 47 -70 119 -72 179 -6 25 28
35 48 35 72 0 81 -93 147 -165 118z m107 -61 c26 -32 23 -86 -7 -115 -34 -35
-78 -33 -117 5 -26 27 -30 36 -24 68 8 50 40 74 91 68 25 -3 47 -13 57 -26z"/>
<path d="M1905 3095 c-33 -32 -32 -75 1 -114 50 -60 144 -26 144 51 0 77 -92
117 -145 63z m96 -26 c15 -15 19 -28 14 -47 -10 -42 -34 -51 -80 -30 -30 13
-34 52 -8 80 21 24 48 23 74 -3z"/>
<path d="M830 3056 c0 -19 40 -31 70 -21 34 11 17 30 -28 33 -32 2 -42 0 -42
-12z"/>
<path d="M636 3035 c-33 -31 -33 -50 3 -86 32 -32 50 -31 89 4 27 25 28 57 2
85 -27 29 -61 28 -94 -3z"/>
<path d="M1514 3046 c-39 -17 -74 -61 -74 -95 0 -14 8 -42 19 -61 50 -94 201
-55 201 53 0 29 -8 45 -32 71 -39 40 -72 50 -114 32z m87 -45 c29 -23 31 -81
4 -111 -43 -47 -129 -12 -129 53 0 69 71 102 125 58z"/>
<path d="M2930 2976 c-69 -60 -91 -66 -236 -66 -80 0 -86 1 -130 35 -25 19
-55 35 -66 35 -42 0 -85 -31 -112 -81 l-27 -49 -186 0 c-156 0 -189 3 -214 17
-28 16 -29 16 -54 -7 -30 -28 -31 -41 -7 -63 25 -23 54 -21 70 3 11 19 23 20
211 20 l198 0 31 -30 c51 -48 102 -52 155 -10 15 12 32 38 38 59 l11 38 142 7
141 6 58 59 c54 56 69 81 48 81 -6 0 -37 -24 -71 -54z m-447 -71 c-27 -11 -33
-20 -33 -44 0 -20 8 -35 22 -45 17 -12 18 -16 6 -16 -34 0 -51 45 -32 88 10
25 19 32 41 32 l28 -1 -32 -14z m50 -90 c-3 -9 -8 -14 -10 -11 -3 3 -2 9 2 15
9 16 15 13 8 -4z"/>
<path d="M5777 2963 c-13 -12 -7 -41 10 -47 22 -9 36 7 28 33 -6 21 -25 28
-38 14z"/>
<path d="M1710 2840 c-13 -8 -13 -11 0 -25 14 -13 19 -13 34 -2 33 24 1 49
-34 27z"/>
<path d="M1785 2830 c3 -5 19 -10 36 -10 16 0 29 5 29 10 0 6 -16 10 -36 10
-21 0 -33 -4 -29 -10z"/>
<path d="M685 2578 c-139 -49 -158 -208 -34 -277 69 -39 150 -22 208 44 30 35
33 43 29 90 -5 63 -36 107 -93 135 -46 22 -66 24 -110 8z"/>
<path d="M1701 2494 c-21 -18 -31 -35 -31 -54 0 -33 39 -84 81 -106 28 -14 29
-18 29 -82 0 -41 -6 -79 -16 -97 -8 -16 -12 -40 -9 -53 5 -19 11 -23 38 -20
29 3 32 6 29 33 -2 17 -6 72 -9 124 -4 83 -2 95 16 115 27 29 43 74 35 100
-21 69 -105 89 -163 40z m113 -20 c23 -22 20 -48 -8 -81 l-24 -28 -36 18 c-31
14 -36 22 -36 50 0 18 5 38 12 45 17 17 74 15 92 -4z"/>
<path d="M6943 2509 c-15 -15 -5 -39 17 -39 21 0 44 25 35 40 -8 13 -38 13
-52 -1z"/>
<path d="M1014 2495 c-4 -9 -2 -21 4 -27 15 -15 54 1 50 20 -4 23 -46 28 -54
7z"/>
<path d="M1290 2500 c-13 -8 -13 -11 1 -26 21 -20 62 -10 57 14 -4 20 -36 26
-58 12z"/>
<path d="M1123 2488 c2 -8 22 -13 52 -13 30 0 50 5 53 13 3 9 -12 12 -53 12
-41 0 -56 -3 -52 -12z"/>
<path d="M1457 2438 c26 -5 64 -6 100 0 56 9 55 10 -42 10 -86 0 -94 -1 -58
-10z"/>
<path d="M3472 2430 c-27 -25 -29 -71 -4 -93 39 -36 112 -9 112 41 0 65 -62
94 -108 52z"/>
<path d="M6517 2355 c-20 -14 -37 -30 -37 -35 0 -6 -9 -19 -20 -30 -18 -18
-33 -20 -157 -20 l-138 1 -20 32 c-13 20 -35 37 -62 46 -37 13 -45 13 -80 -3
-42 -18 -73 -60 -73 -96 0 -29 26 -76 52 -94 49 -34 145 -6 170 49 l11 25 151
0 151 -1 43 -40 42 -40 0 -87 c0 -48 3 -97 6 -109 10 -38 24 -26 24 22 l0 45
80 0 c47 0 80 4 80 10 0 6 -33 10 -80 10 l-80 0 0 38 c0 58 10 79 41 93 45 18
69 55 69 105 0 37 -5 47 -37 73 -46 38 -85 40 -136 6z m57 -39 c-18 -8 -37
-22 -43 -33 -7 -12 -10 -14 -11 -4 0 24 31 51 59 51 25 -1 25 -1 -5 -14z m66
-18 c0 -6 -6 -5 -15 2 -8 7 -15 14 -15 16 0 2 7 1 15 -2 8 -4 15 -11 15 -16z
m-610 -2 c0 -2 -7 -6 -15 -10 -8 -3 -15 -1 -15 4 0 6 7 10 15 10 8 0 15 -2 15
-4z m514 -61 c3 -8 1 -15 -3 -15 -5 0 -11 7 -15 15 -3 8 -1 15 3 15 5 0 11 -7
15 -15z m71 -25 c-3 -5 -10 -10 -16 -10 -5 0 -9 5 -9 10 0 6 7 10 16 10 8 0
12 -4 9 -10z"/>
<path d="M1123 2336 c-25 -21 -28 -31 -28 -81 0 -53 3 -59 33 -85 19 -15 47
-30 63 -34 28 -5 29 -7 29 -71 0 -64 12 -86 24 -42 3 12 6 41 6 64 0 29 7 50
25 71 53 64 54 114 2 170 -26 27 -38 32 -78 32 -36 0 -55 -6 -76 -24z m139
-33 c29 -26 23 -79 -11 -114 -26 -26 -33 -28 -58 -18 -46 17 -63 39 -63 80 0
70 78 101 132 52z"/>
<path d="M2101 2316 c-8 -10 -11 -26 -7 -42 5 -20 12 -25 33 -22 14 2 31 11
37 21 23 36 -36 76 -63 43z"/>
<path d="M1487 2244 c-4 -4 -7 -16 -7 -26 0 -14 6 -19 23 -16 14 2 22 10 22
23 0 20 -25 32 -38 19z"/>
<path d="M1945 2236 c-27 -20 -15 -51 20 -51 23 0 31 5 33 22 4 29 -28 47 -53
29z"/>
<path d="M7080 2179 c-9 -16 -8 -26 5 -45 8 -13 20 -24 25 -24 15 0 40 30 40
49 0 41 -51 56 -70 20z"/>
<path d="M2725 2158 c-11 -6 -32 -22 -47 -35 -25 -24 -30 -25 -146 -22 -108 4
-123 6 -144 27 -31 28 -79 29 -103 2 -17 -19 -18 -22 -2 -55 9 -19 21 -35 27
-35 5 0 10 -18 10 -41 0 -45 14 -45 23 0 9 46 43 61 144 68 118 8 199 -3 225
-29 17 -17 20 -30 16 -74 -4 -44 -10 -57 -33 -76 -43 -35 -52 -37 -162 -37
-100 -1 -102 0 -135 29 -18 17 -37 31 -43 31 -26 3 -52 -5 -78 -23 -23 -17
-40 -20 -101 -16 -68 3 -76 6 -103 35 -53 57 -103 56 -174 -3 -41 -34 -46 -36
-106 -32 -56 4 -67 8 -93 36 -43 47 -89 45 -141 -8 l-40 -40 -93 0 c-91 0 -94
1 -112 28 -9 15 -25 32 -33 39 -27 21 -77 15 -110 -13 -43 -36 -44 -93 -2
-135 45 -45 84 -40 137 16 l41 45 77 0 c79 0 131 -15 155 -43 8 -11 28 -17 53
-17 32 0 45 6 66 30 25 28 31 30 96 30 66 0 70 -1 112 -40 29 -27 53 -40 71
-40 32 0 77 27 99 59 13 18 25 21 95 21 43 0 79 -4 79 -9 0 -5 12 -23 26 -40
35 -42 81 -42 122 -1 29 28 35 30 139 36 l110 7 40 -37 c43 -38 61 -43 96 -25
29 16 37 28 37 60 0 26 -34 72 -61 81 -10 3 -14 21 -13 66 1 54 4 64 27 83 32
24 36 68 9 92 -22 20 -30 20 -57 5z m-782 -283 c-3 -9 -8 -14 -10 -11 -3 3 -2
9 2 15 9 16 15 13 8 -4z"/>
<path d="M672 2114 c-26 -18 -30 -74 -6 -98 32 -32 98 -11 104 34 10 68 -43
102 -98 64z"/>
<path d="M1610 2085 c0 -8 7 -15 15 -15 8 0 15 7 15 15 0 8 -7 15 -15 15 -8 0
-15 -7 -15 -15z"/>
<path d="M6810 2075 c-18 -21 -5 -45 24 -45 25 0 44 30 31 50 -9 15 -41 12
-55 -5z"/>
<path d="M1337 2073 c-12 -12 -7 -51 7 -56 21 -8 35 14 25 41 -8 22 -20 28
-32 15z"/>
<path d="M6954 2055 c-7 -18 3 -35 22 -35 8 0 14 10 14 25 0 27 -27 35 -36 10z"/>
<path d="M7104 2035 c-8 -20 3 -48 16 -40 13 8 13 55 0 55 -6 0 -13 -7 -16
-15z"/>
<path d="M6040 2025 c0 -8 9 -15 20 -15 13 0 18 5 14 15 -4 8 -12 15 -20 15
-8 0 -14 -7 -14 -15z"/>
<path d="M6177 2033 c-15 -15 -5 -23 28 -23 24 0 35 5 35 15 0 15 -50 22 -63
8z"/>
<path d="M6313 2033 c-24 -9 -13 -23 18 -23 20 0 29 4 27 13 -5 13 -26 18 -45
10z"/>
<path d="M6457 2034 c-9 -10 2 -24 19 -24 8 0 14 7 14 15 0 15 -21 21 -33 9z"/>
<path d="M920 2005 c-20 -24 3 -67 33 -63 18 2 22 9 22 38 0 28 -4 36 -21 38
-11 2 -27 -4 -34 -13z"/>
<path d="M1115 1990 c-11 -17 4 -50 21 -43 18 7 18 27 0 42 -10 8 -16 9 -21 1z"/>
<path d="M6803 1928 c-13 -6 -23 -18 -23 -28 0 -18 19 -40 34 -40 5 0 2 6 -8
13 -23 17 -11 47 20 47 19 0 24 -5 24 -24 0 -13 -6 -27 -12 -29 -8 -4 -9 -6
-2 -6 24 -2 38 28 26 54 -12 27 -25 30 -59 13z"/>
<path d="M7066 1900 c-21 -26 -24 -35 -15 -57 6 -15 15 -33 21 -40 32 -38 116
14 104 65 -8 31 -40 62 -66 62 -10 0 -30 -14 -44 -30z"/>
</g>
</svg>
