<?xml version="1.0" standalone="no"?>
<!DOCTYPE svg PUBLIC "-//W3C//DTD SVG 20010904//EN"
 "http://www.w3.org/TR/2001/REC-SVG-20010904/DTD/svg10.dtd">
<svg version="1.0" xmlns="http://www.w3.org/2000/svg"
 width="800.000000pt" height="800.000000pt" viewBox="0 0 800.000000 800.000000"
 preserveAspectRatio="xMidYMid meet">

<g transform="translate(0.000000,800.000000) scale(0.100000,-0.100000)"
fill="#000000" stroke="none">
<path d="M3840 7784 c-88 -19 -220 -84 -307 -150 -254 -195 -354 -500 -272
-830 l21 -82 -163 -233 c-90 -129 -482 -711 -872 -1294 -656 -981 -710 -1060
-735 -1059 -15 1 -62 9 -105 18 -146 30 -390 18 -502 -25 -267 -103 -481 -330
-549 -584 -24 -86 -32 -258 -16 -352 30 -187 100 -331 228 -465 206 -215 487
-308 759 -252 102 21 223 66 279 103 38 26 48 29 67 20 28 -15 0 6 807 -581
382 -278 727 -527 765 -553 39 -26 69 -53 68 -59 -2 -6 -12 -45 -24 -86 -15
-53 -23 -116 -26 -211 -6 -155 5 -240 44 -339 75 -188 273 -375 474 -447 65
-23 89 -26 204 -26 107 -1 144 3 210 22 254 74 451 265 530 515 46 143 43 337
-7 505 l-22 74 24 16 c13 9 220 162 460 340 239 178 591 441 782 583 191 142
351 258 356 258 5 0 51 -22 103 -49 125 -66 217 -91 359 -98 131 -7 239 10
350 54 252 101 449 319 517 573 24 91 24 339 0 430 -23 85 -95 234 -148 307
-126 172 -316 296 -506 333 -94 19 -339 8 -430 -19 -109 -32 -111 -31 -163 52
-40 66 -1347 2048 -1574 2389 l-98 147 17 71 c26 105 17 358 -15 450 -93 264
-305 466 -556 530 -91 24 -235 25 -334 4z m-291 -1383 c74 -57 200 -116 296
-139 l80 -19 3 -129 c1 -71 -1 -160 -5 -198 l-8 -69 -85 -29 c-160 -54 -246
-104 -346 -203 -100 -99 -147 -173 -188 -297 -47 -138 -45 -347 4 -485 19 -55
20 -59 3 -68 -63 -37 -344 -231 -676 -468 -213 -153 -461 -327 -552 -389
l-164 -111 -98 103 c-54 57 -98 111 -97 119 1 21 1397 2104 1642 2449 l45 63
46 -44 c25 -24 70 -63 100 -86z m1339 -283 c665 -998 1259 -1902 1338 -2037
l47 -81 -79 -83 c-43 -45 -81 -86 -85 -90 -4 -5 -17 -3 -30 4 -72 37 -509 337
-1087 746 -151 106 -280 197 -288 201 -11 6 -10 21 6 82 43 163 36 376 -17
510 -67 168 -207 320 -368 399 -54 26 -104 42 -208 65 l-27 6 2 201 3 200 126
42 c143 48 206 83 310 173 41 35 77 63 81 64 5 0 129 -181 276 -402z m-1391
-1588 c85 -79 198 -141 330 -180 l83 -25 0 -576 0 -577 -67 -6 c-145 -12 -585
-15 -1183 -8 l-625 7 -6 150 c-4 83 -11 170 -18 195 -21 89 -22 88 107 179 64
46 317 224 562 396 636 445 735 514 739 515 2 0 37 -31 78 -70z m1171 19 c325
-218 1322 -925 1322 -938 0 -9 -7 -51 -15 -93 -8 -42 -17 -137 -21 -211 l-7
-135 -141 -6 c-179 -8 -794 -12 -1313 -8 l-403 2 0 584 0 585 82 26 c138 45
315 144 382 214 17 17 31 31 33 31 2 0 39 -23 81 -51z m-3467 -1125 c19 -9 38
-32 50 -58 60 -136 -128 -237 -196 -105 -57 108 41 218 146 163z m5689 -19
c35 -34 45 -73 30 -118 -20 -61 -54 -81 -132 -78 -43 2 -88 48 -95 97 -6 49
17 106 50 123 39 19 114 7 147 -24z m-2982 -986 l-3 -571 -80 -28 c-125 -42
-172 -66 -293 -147 l-112 -76 -23 20 c-12 11 -58 44 -102 73 -289 193 -1370
985 -1425 1044 l-25 27 23 37 c12 20 41 72 64 114 l43 78 968 0 967 0 -2 -571z
m2133 519 c13 -28 43 -79 66 -112 24 -34 43 -64 43 -68 0 -19 -1312 -1001
-1527 -1142 l-42 -28 -68 61 c-80 73 -217 146 -340 181 l-83 24 0 568 0 568
963 0 964 0 24 -52z"/>
</g>
</svg>
